<svg width="132" height="48" viewBox="0 0 132 48" fill="none" xmlns="http://www.w3.org/2000/svg">
<path d="M19.1846 22.7962H13.5491C13.5092 22.3299 13.4026 21.9069 13.2294 21.5272C13.0629 21.1475 12.8297 20.8211 12.53 20.548C12.2369 20.2682 11.8805 20.0551 11.4608 19.9085C11.0412 19.7553 10.5649 19.6787 10.032 19.6787C9.09938 19.6787 8.31001 19.9052 7.66386 20.3582C7.02437 20.8111 6.5381 21.4606 6.20503 22.3066C5.87862 23.1526 5.71542 24.1685 5.71542 25.3542C5.71542 26.6066 5.88196 27.6558 6.21502 28.5018C6.55475 29.3411 7.04436 29.9739 7.68385 30.4003C8.32333 30.8199 9.09272 31.0298 9.992 31.0298C10.5049 31.0298 10.9646 30.9665 11.3709 30.8399C11.7772 30.7067 12.1303 30.5169 12.43 30.2704C12.7298 30.0239 12.9729 29.7275 13.1595 29.3811C13.3526 29.028 13.4825 28.6317 13.5491 28.192L19.1846 28.232C19.118 29.098 18.8749 29.9806 18.4552 30.8799C18.0356 31.7725 17.4394 32.5986 16.6666 33.358C15.9006 34.1107 14.9514 34.7169 13.8189 35.1765C12.6865 35.6362 11.3709 35.866 9.87209 35.866C7.9936 35.866 6.30828 35.463 4.81614 34.6569C3.33067 33.8509 2.15494 32.6652 1.28897 31.0997C0.429656 29.5343 0 27.6191 0 25.3542C0 23.076 0.439648 21.1575 1.31894 19.5987C2.19824 18.0333 3.38396 16.8509 4.87609 16.0515C6.36823 15.2455 8.03357 14.8425 9.87209 14.8425C11.1644 14.8425 12.3534 15.019 13.4392 15.3721C14.525 15.7251 15.4776 16.2414 16.2969 16.9208C17.1163 17.5937 17.7758 18.423 18.2754 19.4089C18.775 20.3948 19.0781 21.5239 19.1846 22.7962Z" fill="white"/>
<path d="M31.7371 28.8715V20.2382H37.2527V35.5862H32.0169V32.6685H31.857C31.5239 33.6477 30.941 34.4138 30.1084 34.9667C29.2757 35.5129 28.2865 35.7861 27.1408 35.7861C26.0683 35.7861 25.129 35.5396 24.323 35.0466C23.5237 34.5537 22.9008 33.8742 22.4545 33.0082C22.0149 32.1422 21.7917 31.1497 21.785 30.0306V20.2382H27.3006V28.8715C27.3073 29.6309 27.5005 30.2271 27.8802 30.6601C28.2665 31.0931 28.8061 31.3096 29.4989 31.3096C29.9585 31.3096 30.3549 31.213 30.6879 31.0198C31.0276 30.8199 31.2874 30.5402 31.4673 30.1804C31.6538 29.8141 31.7437 29.3777 31.7371 28.8715Z" fill="white"/>
<path d="M40.0579 35.5862V20.2382H45.5735V35.5862H40.0579ZM42.8157 18.6395C42.0696 18.6395 41.4301 18.393 40.8972 17.9001C40.3643 17.4071 40.0979 16.8143 40.0979 16.1215C40.0979 15.4287 40.3643 14.8358 40.8972 14.3429C41.4301 13.8499 42.0696 13.6034 42.8157 13.6034C43.5684 13.6034 44.2079 13.8499 44.7342 14.3429C45.2671 14.8358 45.5335 15.4287 45.5335 16.1215C45.5335 16.8143 45.2671 17.4071 44.7342 17.9001C44.2079 18.393 43.5684 18.6395 42.8157 18.6395Z" fill="white"/>
<path d="M53.9393 35.7861C52.8468 35.7861 51.841 35.4996 50.9217 34.9267C50.0091 34.3538 49.2764 33.4845 48.7235 32.3188C48.1772 31.153 47.9041 29.6842 47.9041 27.9122C47.9041 26.0603 48.1906 24.5549 48.7634 23.3958C49.343 22.2367 50.089 21.3873 51.0016 20.8478C51.9209 20.3082 52.8868 20.0384 53.8993 20.0384C54.6587 20.0384 55.3249 20.1716 55.8977 20.4381C56.4706 20.6979 56.9502 21.0476 57.3366 21.4873C57.7229 21.9203 58.016 22.3966 58.2159 22.9161H58.2958V15.1223H63.8114V35.5862H58.3358V33.0682H58.2159C58.0027 33.5878 57.6963 34.0541 57.2966 34.4671C56.9036 34.8734 56.424 35.1965 55.8578 35.4363C55.2982 35.6695 54.6587 35.7861 53.9393 35.7861ZM55.9777 31.5494C56.4839 31.5494 56.9169 31.4028 57.2766 31.1097C57.643 30.81 57.9228 30.3903 58.1159 29.8507C58.3158 29.3045 58.4157 28.6583 58.4157 27.9122C58.4157 27.1528 58.3158 26.5033 58.1159 25.9638C57.9228 25.4175 57.643 25.0012 57.2766 24.7147C56.9169 24.4216 56.4839 24.2751 55.9777 24.2751C55.4714 24.2751 55.0384 24.4216 54.6787 24.7147C54.3256 25.0012 54.0525 25.4175 53.8594 25.9638C53.6728 26.5033 53.5796 27.1528 53.5796 27.9122C53.5796 28.6716 53.6728 29.3245 53.8594 29.8707C54.0525 30.4103 54.3256 30.8266 54.6787 31.1197C55.0384 31.4062 55.4714 31.5494 55.9777 31.5494Z" fill="white"/>
<path d="M70.7958 35.826C69.8166 35.826 68.9506 35.6661 68.1979 35.3464C67.4518 35.02 66.8656 34.527 66.4393 33.8676C66.013 33.2081 65.7998 32.3687 65.7998 31.3495C65.7998 30.5102 65.943 29.7941 66.2295 29.2012C66.5159 28.6017 66.9156 28.1121 67.4285 27.7324C67.9414 27.3527 68.5376 27.0629 69.2171 26.8631C69.9032 26.6632 70.6426 26.5333 71.4353 26.4734C72.2946 26.4067 72.984 26.3268 73.5036 26.2335C74.0299 26.1336 74.4096 25.9971 74.6427 25.8239C74.8759 25.644 74.9924 25.4075 74.9924 25.1144V25.0745C74.9924 24.6748 74.8392 24.3683 74.5328 24.1552C74.2264 23.942 73.8334 23.8354 73.3537 23.8354C72.8275 23.8354 72.3978 23.952 72.0648 24.1852C71.7384 24.4116 71.5419 24.7614 71.4752 25.2343H66.3993C66.4659 24.3017 66.7624 23.4424 67.2886 22.6563C67.8215 21.8636 68.5976 21.2308 69.6167 20.7578C70.6359 20.2782 71.9082 20.0384 73.4337 20.0384C74.5328 20.0384 75.5187 20.1683 76.3913 20.4281C77.2639 20.6812 78.0067 21.0376 78.6195 21.4973C79.2324 21.9502 79.6987 22.4832 80.0184 23.096C80.3448 23.7022 80.508 24.3617 80.508 25.0745V35.5862H75.3521V33.4279H75.2322C74.9258 34.0008 74.5528 34.4638 74.1131 34.8168C73.6801 35.1699 73.1839 35.4263 72.6243 35.5862C72.0714 35.7461 71.4619 35.826 70.7958 35.826ZM72.5944 32.3487C73.014 32.3487 73.407 32.2621 73.7734 32.089C74.1464 31.9158 74.4495 31.6659 74.6827 31.3395C74.9158 31.0131 75.0324 30.6168 75.0324 30.1505V28.8715C74.8859 28.9314 74.7293 28.988 74.5628 29.0413C74.4029 29.0946 74.2297 29.1446 74.0432 29.1912C73.8633 29.2379 73.6702 29.2812 73.4637 29.3211C73.2638 29.3611 73.054 29.3977 72.8342 29.431C72.4078 29.4977 72.0581 29.6076 71.785 29.7608C71.5185 29.9073 71.3187 30.0905 71.1855 30.3103C71.0589 30.5235 70.9956 30.7633 70.9956 31.0298C70.9956 31.4561 71.1455 31.7825 71.4453 32.009C71.745 32.2355 72.1281 32.3487 72.5944 32.3487Z" fill="white"/>
<path d="M83.1434 35.5862V20.2382H88.4991V23.156H88.659C88.9388 22.0768 89.3817 21.2874 89.9879 20.7878C90.6008 20.2882 91.3169 20.0384 92.1362 20.0384C92.376 20.0384 92.6125 20.0584 92.8456 20.0984C93.0854 20.1317 93.3153 20.1816 93.5351 20.2482V24.9545C93.262 24.8613 92.9256 24.7913 92.5259 24.7447C92.1262 24.6981 91.7831 24.6748 91.4967 24.6748C90.9571 24.6748 90.4709 24.798 90.0379 25.0445C89.6116 25.2843 89.2752 25.624 89.0287 26.0637C88.7822 26.4967 88.659 27.0063 88.659 27.5925V35.5862H83.1434Z" fill="white"/>
<path d="M107.239 33.8393V19.0509H111.715V33.8393H107.239ZM102.083 28.6834V24.2069H116.871V28.6834H102.083Z" fill="white"/>
<path d="M118.617 11.4262V8.81654H99.6414V11.4262C99.6414 12.5688 98.7151 13.4952 97.5725 13.4952C96.4299 13.4951 95.5036 12.5688 95.5036 11.4262V9.12608C94.3841 9.46842 93.352 10.0867 92.5069 10.9421C91.7038 11.7549 90.3941 11.7629 89.5813 10.9599C88.7685 10.1568 88.7604 8.84704 89.5635 8.03421C91.1907 6.38733 93.2661 5.29209 95.5036 4.87177V2.06897C95.5036 0.92633 96.4299 3.60534e-05 97.5725 0C98.7151 0 99.6414 0.926307 99.6414 2.06897V4.67861H118.617V2.06897C118.617 0.92639 119.543 0.000134242 120.686 0C121.828 0 122.754 0.926307 122.754 2.06897V4.87096C124.992 5.29121 127.067 6.38728 128.695 8.03421C130.814 10.1789 132 13.0824 132 16.1048V36.5738C132 39.5963 130.814 42.4997 128.695 44.6444C126.575 46.7899 123.694 48 120.686 48H97.5725C94.5637 48 91.6833 46.7899 89.5635 44.6444C88.7604 43.8316 88.7685 42.5218 89.5813 41.7188C90.3434 40.9658 91.5423 40.9256 92.3509 41.5935L92.5069 41.7365L92.7647 41.9846C94.0824 43.1925 95.7956 43.8621 97.5725 43.8621H120.686C122.581 43.8621 124.403 43.1005 125.751 41.7365C127.1 40.3716 127.862 38.5147 127.862 36.5738V16.1048C127.862 14.1639 127.1 12.307 125.751 10.9421C124.906 10.0867 123.874 9.46838 122.754 9.12608V11.4262C122.754 12.5688 121.828 13.4952 120.686 13.4952C119.543 13.495 118.617 12.5688 118.617 11.4262Z" fill="white"/>
</svg>
