<svg width="328" height="120" viewBox="0 0 328 120" fill="none" xmlns="http://www.w3.org/2000/svg">
<path d="M48.0027 54.982H33.914C33.8141 53.8162 33.5476 52.7587 33.1146 51.8095C32.6983 50.8602 32.1154 50.0442 31.366 49.3614C30.6333 48.6619 29.7423 48.129 28.6932 47.7626C27.644 47.3796 26.4533 47.1881 25.121 47.1881C22.7896 47.1881 20.8162 47.7543 19.2008 48.8868C17.6021 50.0192 16.3864 51.6429 15.5537 53.7579C14.7377 55.8729 14.3297 58.4126 14.3297 61.377C14.3297 64.5078 14.746 67.1308 15.5787 69.2458C16.428 71.3441 17.652 72.9262 19.2508 73.9921C20.8495 75.0412 22.7729 75.5658 25.0211 75.5658C26.3034 75.5658 27.4525 75.4076 28.4684 75.0912C29.4842 74.7581 30.3668 74.2835 31.1162 73.6673C31.8656 73.0511 32.4735 72.31 32.9398 71.4441C33.4227 70.5614 33.7475 69.5705 33.914 68.4714L48.0027 68.5713C47.8362 70.7363 47.2283 72.9429 46.1792 75.1911C45.13 77.4227 43.6395 79.4878 41.7078 81.3863C39.7926 83.2681 37.4195 84.7836 34.5885 85.9327C31.7574 87.0818 28.4684 87.6564 24.7214 87.6564C20.0251 87.6564 15.8118 86.6488 12.0815 84.6337C8.3678 82.6186 5.42849 79.6543 3.26356 75.7407C1.11528 71.8271 0.0411377 67.0392 0.0411377 61.377C0.0411377 55.6814 1.14026 50.8852 3.3385 46.9882C5.53674 43.0746 8.50103 40.1186 12.2314 38.1202C15.9617 36.1051 20.1251 35.0976 24.7214 35.0976C27.9521 35.0976 30.9247 35.5389 33.6392 36.4215C36.3537 37.3042 38.7351 38.5948 40.7835 40.2935C42.8319 41.9755 44.4805 44.0489 45.7295 46.5136C46.9785 48.9783 47.7363 51.8011 48.0027 54.982Z" fill="#39362F"/>
<path d="M79.3838 70.1701V48.587H93.1728V86.9569H80.0833V79.6626H79.6836C78.8509 82.1107 77.3938 84.0259 75.3121 85.4081C73.2304 86.7737 70.7574 87.4565 67.893 87.4565C65.2119 87.4565 62.8637 86.8403 60.8487 85.608C58.8503 84.3756 57.2932 82.6769 56.1774 80.512C55.0783 78.347 54.5204 75.8656 54.5038 73.0678V48.587H68.2927V70.1701C68.3094 72.0686 68.7923 73.5591 69.7416 74.6416C70.7075 75.724 72.0564 76.2653 73.7883 76.2653C74.9374 76.2653 75.9283 76.0238 76.7609 75.5408C77.6103 75.0412 78.2597 74.3418 78.7094 73.4425C79.1757 72.5266 79.4005 71.4357 79.3838 70.1701Z" fill="#39362F"/>
<path d="M100.186 86.9569V48.587H113.975V86.9569H100.186ZM107.08 44.5901C105.215 44.5901 103.617 43.9739 102.284 42.7416C100.952 41.5092 100.286 40.027 100.286 38.2951C100.286 36.5631 100.952 35.0809 102.284 33.8485C103.617 32.6162 105.215 32 107.08 32C108.962 32 110.561 32.6162 111.877 33.8485C113.209 35.0809 113.875 36.5631 113.875 38.2951C113.875 40.027 113.209 41.5092 111.877 42.7416C110.561 43.9739 108.962 44.5901 107.08 44.5901Z" fill="#39362F"/>
<path d="M134.889 87.4565C132.158 87.4565 129.644 86.7404 127.345 85.3082C125.064 83.876 123.232 81.7027 121.85 78.7883C120.484 75.8739 119.801 72.2018 119.801 67.7719C119.801 63.1422 120.518 59.3785 121.95 56.4808C123.399 53.5831 125.264 51.4597 127.545 50.1108C129.843 48.7619 132.258 48.0874 134.789 48.0874C136.688 48.0874 138.353 48.4205 139.785 49.0866C141.218 49.7361 142.417 50.6104 143.383 51.7095C144.348 52.792 145.081 53.9828 145.581 55.2817H145.781V35.797H159.57V86.9569H145.881V80.6618H145.581C145.048 81.9608 144.282 83.1266 143.283 84.1591C142.3 85.175 141.101 85.9827 139.686 86.5822C138.287 87.1651 136.688 87.4565 134.889 87.4565ZM139.985 76.8648C141.251 76.8648 142.333 76.4984 143.233 75.7657C144.149 75.0163 144.848 73.9671 145.331 72.6181C145.831 71.2525 146.08 69.6371 146.08 67.7719C146.08 65.8734 145.831 64.2497 145.331 62.9008C144.848 61.5352 144.149 60.4943 143.233 59.7782C142.333 59.0455 141.251 58.6791 139.985 58.6791C138.72 58.6791 137.637 59.0455 136.738 59.7782C135.855 60.4943 135.172 61.5352 134.69 62.9008C134.223 64.2497 133.99 65.8734 133.99 67.7719C133.99 69.6705 134.223 71.3025 134.69 72.6681C135.172 74.017 135.855 75.0579 136.738 75.7907C137.637 76.5068 138.72 76.8648 139.985 76.8648Z" fill="#39362F"/>
<path d="M177.031 87.5564C174.583 87.5564 172.418 87.1567 170.536 86.3574C168.671 85.5413 167.205 84.309 166.139 82.6603C165.074 81.0116 164.541 78.9132 164.541 76.3652C164.541 74.2668 164.899 72.4766 165.615 70.9944C166.331 69.4956 167.33 68.2716 168.612 67.3223C169.895 66.373 171.385 65.6486 173.084 65.149C174.799 64.6494 176.648 64.3246 178.629 64.1748C180.778 64.0082 182.501 63.8084 183.8 63.5752C185.116 63.3254 186.065 62.984 186.648 62.551C187.231 62.1014 187.522 61.5102 187.522 60.7774V60.6775C187.522 59.6783 187.139 58.9122 186.373 58.3793C185.607 57.8464 184.625 57.5799 183.426 57.5799C182.11 57.5799 181.036 57.8714 180.203 58.4543C179.387 59.0205 178.896 59.8948 178.729 61.0772H166.039C166.206 58.7457 166.947 56.5974 168.263 54.6322C169.595 52.6505 171.535 51.0684 174.083 49.886C176.631 48.6869 179.812 48.0874 183.625 48.0874C186.373 48.0874 188.838 48.4121 191.019 49.0616C193.201 49.6945 195.058 50.5854 196.59 51.7345C198.122 52.867 199.288 54.1993 200.087 55.7314C200.903 57.2469 201.311 58.8956 201.311 60.6775V86.9569H188.422V81.5611H188.122C187.356 82.9933 186.423 84.1508 185.324 85.0334C184.242 85.916 183.001 86.5572 181.602 86.9569C180.22 87.3566 178.696 87.5564 177.031 87.5564ZM181.527 78.8632C182.576 78.8632 183.559 78.6467 184.475 78.2137C185.407 77.7808 186.165 77.1562 186.748 76.3402C187.331 75.5242 187.622 74.5333 187.622 73.3675V70.1701C187.256 70.3199 186.864 70.4615 186.448 70.5947C186.048 70.728 185.615 70.8529 185.149 70.9694C184.699 71.086 184.217 71.1943 183.7 71.2942C183.201 71.3941 182.676 71.4857 182.127 71.569C181.061 71.7355 180.186 72.0103 179.504 72.3933C178.838 72.7597 178.338 73.2177 178.005 73.7672C177.688 74.3002 177.53 74.8997 177.53 75.5658C177.53 76.6317 177.905 77.4477 178.654 78.0139C179.404 78.5801 180.361 78.8632 181.527 78.8632Z" fill="#39362F"/>
<path d="M207.9 86.9569V48.587H221.289V55.8813H221.689C222.388 53.1834 223.495 51.2099 225.011 49.9609C226.543 48.7119 228.333 48.0874 230.382 48.0874C230.981 48.0874 231.572 48.1373 232.155 48.2373C232.755 48.3205 233.329 48.4454 233.879 48.612V60.3777C233.196 60.1446 232.355 59.9697 231.356 59.8532C230.357 59.7366 229.499 59.6783 228.783 59.6783C227.434 59.6783 226.218 59.9864 225.136 60.6026C224.07 61.2021 223.229 62.0514 222.613 63.1506C221.997 64.233 221.689 65.507 221.689 66.9726V86.9569H207.9Z" fill="#39362F"/>
<path d="M266.056 84.5984V47.6274H277.247V84.5984H266.056ZM253.166 71.7085V60.5172H290.137V71.7085H253.166Z" fill="#6554C0"/>
<path d="M294.5 28.5655V22.0414H247.063V28.5655C247.063 31.4221 244.747 33.7379 241.89 33.7379C239.034 33.7378 236.718 31.4221 236.718 28.5655V22.8152C233.919 23.6711 231.339 25.2168 229.226 27.3552C227.218 29.3872 223.944 29.4073 221.912 27.3997C219.88 25.3919 219.86 22.1176 221.868 20.0855C225.936 15.9683 231.124 13.2302 236.718 12.1794V5.17241C236.718 2.31582 239.034 9.01336e-05 241.89 0C244.747 0 247.063 2.31577 247.063 5.17241V11.6965H294.5V5.17241C294.5 2.31598 296.816 0.000335605 299.673 0C302.529 0 304.845 2.31577 304.845 5.17241V12.1774C310.439 13.228 315.627 15.9682 319.695 20.0855C324.993 25.4472 327.959 32.7059 327.959 40.262V91.4345C327.959 98.9906 324.993 106.249 319.695 111.611C314.396 116.975 307.195 120 299.673 120H241.89C234.368 120 227.167 116.975 221.868 111.611C219.86 109.579 219.88 106.305 221.912 104.297C223.817 102.414 226.815 102.314 228.836 103.984L229.226 104.341L229.871 104.962C233.165 107.981 237.448 109.655 241.89 109.655H299.673C304.41 109.655 308.967 107.751 312.337 104.341C315.708 100.929 317.614 96.2869 317.614 91.4345V40.262C317.614 35.4097 315.708 30.7676 312.337 27.3552C310.224 25.2168 307.644 23.671 304.845 22.8152V28.5655C304.845 31.4221 302.529 33.7379 299.673 33.7379C296.816 33.7375 294.5 31.4219 294.5 28.5655Z" fill="#6554C0"/>
</svg>
